<svg xmlns="http://www.w3.org/2000/svg" viewBox="0 0 60 60" xmlns:v="https://vecta.io/nano"><path d="M1 23h48v36H1z" fill="#dd636e"/><path d="M25,23v32H5V21h18c1.1,0,2,.9,2,2Z" fill="#e9e9ea"/><path d="M25 23v32h20V21H27c-1.1 0-2 .9-2 2z" fill="#e0e0e2"/><path d="M59 1v25H41.5L32 31v-5h-4V1h31z" fill="#e0f7fc"/><g fill="#5bcbfa"><circle cx="27" cy="45" r="7"/><circle cx="45" cy="45" r="7"/></g><path d="M59 0H28c-.55 0-1 .45-1 1v19c-.74 0-1.45.28-2 .78-.55-.5-1.26-.78-2-.78H5c-.55 0-1 .45-1 1v1H1c-.55 0-1 .45-1 1v36c0 .55.45 1 1 1h48c.55 0 1-.45 1-1v-7.76c1.62-1.3 2.67-3.18 2.93-5.24H55c.55 0 1-.45 1-1V35a3.01 3.01 0 0 0-3-3h-2v2h2c.55 0 1 .45 1 1v9h-1.07c-.26-2.06-1.31-3.94-2.93-5.24V27h9c.55 0 1-.45 1-1V1c0-.55-.45-1-1-1zM26 23c0-.55.45-1 1-1v4c0 .55.45 1 1 1h3v4c0 .35.18.68.48.86.16.09.34.14.52.14.16 0 .33-.04.47-.12L41.75 27H44v10.07c-3.62.46-6.47 3.31-6.93 6.93h-2.14A7.99 7.99 0 0 0 27 37c-.33 0-.67.03-1 .07V23zm18 29.93V54H26v-1.07c.33.04.67.07 1 .07a7.99 7.99 0 0 0 7.93-7h2.14c.46 3.62 3.31 6.47 6.93 6.93zM27 39c3.31 0 6 2.69 6 6s-2.69 6-6 6-6-2.69-6-6 2.69-6 6-6zM6 22h17c.55 0 1 .45 1 1v14.59A8.02 8.02 0 0 0 19.07 44H18v-9c0-.55.45-1 1-1h2v-2h-2a3.01 3.01 0 0 0-3 3v10c0 .55.45 1 1 1h2.07A8.02 8.02 0 0 0 24 52.41V54H6V22zm42 36H2V24h2v31c0 .55.45 1 1 1h40c.55 0 1-.45 1-1v-2.07c.69-.08 1.36-.26 2-.52V58zm3-13c0 3.31-2.69 6-6 6s-6-2.69-6-6 2.69-6 6-6 6 2.69 6 6zm-5-7.93V27h2v10.59c-.64-.26-1.31-.44-2-.52zM58 25H41.5c-.16 0-.33.04-.47.12L33 29.34V26c0-.55-.45-1-1-1h-3V2h29v23z"/><path d="M52.19 13.85c-.36.1-3.94.88-7.44 1.07l.67-.66s-1.17-.69-4.44.17l-.24.35-.28-.05c-1.54-.31-2.68-.82-3.51-1.33l1.23-1.09-2.48-.14-.11.16-.11-.12c-.22-.24-.13-.64.18-.76h.02c.3-.11.76-.26 1.45-.43l.95-.22.44-.09.68-.11 4.71-.71 3.9-.5.22-.01c1.27-.06 2.71.13 3.86.99-.63 1.2-2.21 1.29-2.21 1.29-.09 0-.15.06-.16.4-.01.33.25.31.25.31 1.93-.27 2.51-1.18 2.66-1.51.18.18.34.39.49.62 1.25 1.87-.2 2.25-.72 2.39z" fill="#f29200"/><g fill="#004668"><path d="M38.17 12.31l-1.23 1.09-1.32 1.12c-1.21 1-2.02.61-2.02.61l1.97-2.81.11-.16 2.48.14zm1.3-2.55l-.3.84-.68.11-.44.09-.29-.42.86-.83.61-.12c.35-.07.23.33.23.33z"/><path d="M38.06 10.8l-.95.22-1.45.43-1.26-4.12s1.12-.25 1.49.28l1.89 2.77.29.42zm10.92-4.19l-.99 2.77-.22.01c-.68.05-2.24.26-3.9.5l3.35-3.68s.57-.19 1.23-.24.52.64.52.64zm-3.57 7.65l-.67.66-5.66 5.59c-1.31 1.25-2.84.73-2.84.73l4.48-6.46.24-.35c3.27-.86 4.44-.17 4.44-.17z"/></g><path d="M52.41,10.85c-.15.33-.73,1.25-2.66,1.51,0,0-.26.02-.25-.31,0-.33.07-.39.16-.4,0,0,1.58-.09,2.21-1.29.19.14.37.3.55.48Z" fill="#606e77"/></svg>